<svg xmlns="http://www.w3.org/2000/svg" xmlns:xlink="http://www.w3.org/1999/xlink" width="500" zoomAndPan="magnify" viewBox="0 0 375 374.999991" height="500" preserveAspectRatio="xMidYMid meet" version="1.0"><defs><g/><clipPath id="298870447d"><path d="M 139.40625 102.242188 L 237.65625 102.242188 L 237.65625 177.242188 L 139.40625 177.242188 Z M 139.40625 102.242188 " clip-rule="nonzero"/></clipPath><clipPath id="53cef8aa74"><path d="M 198.855469 126.53125 L 212.355469 126.53125 L 212.355469 152.78125 L 198.855469 152.78125 Z M 198.855469 126.53125 " clip-rule="nonzero"/></clipPath><clipPath id="a3e386a211"><path d="M 212.359375 149.695312 L 212.359375 152.78125 C 204.902344 152.78125 198.855469 146.90625 198.855469 139.65625 C 198.855469 132.40625 204.902344 126.53125 212.359375 126.53125 L 212.359375 129.617188 C 206.65625 129.617188 202.03125 134.109375 202.03125 139.65625 C 202.03125 145.199219 206.65625 149.695312 212.359375 149.695312 Z M 212.359375 149.695312 " clip-rule="nonzero"/></clipPath><clipPath id="7550d8e3a3"><path d="M 164.707031 126.53125 L 177.984375 126.53125 L 177.984375 152.78125 L 164.707031 152.78125 Z M 164.707031 126.53125 " clip-rule="nonzero"/></clipPath><clipPath id="9583b9549f"><path d="M 164.484375 149.695312 L 164.484375 152.78125 C 171.941406 152.78125 177.984375 146.90625 177.984375 139.65625 C 177.984375 132.40625 171.941406 126.53125 164.484375 126.53125 L 164.484375 129.617188 C 170.183594 129.617188 174.808594 134.109375 174.808594 139.65625 C 174.808594 145.199219 170.1875 149.695312 164.484375 149.695312 Z M 164.484375 149.695312 " clip-rule="nonzero"/></clipPath></defs><g fill="#efefef" fill-opacity="1"><g transform="translate(139.407828, 216.87397)"><g><path d="M 10.695312 0 C 11.140625 0 11.375 -0.230469 11.375 -0.679688 L 11.375 -21.308594 L 16.886719 -21.308594 C 17.335938 -21.308594 17.566406 -21.554688 17.566406 -21.988281 L 17.566406 -24.75 C 17.566406 -25.199219 17.335938 -25.429688 16.886719 -25.429688 L 1.191406 -25.429688 C 0.746094 -25.429688 0.511719 -25.199219 0.511719 -24.75 L 0.511719 -21.988281 C 0.511719 -21.554688 0.746094 -21.308594 1.191406 -21.308594 L 6.6875 -21.308594 L 6.6875 -0.679688 C 6.6875 -0.230469 6.9375 0 7.367188 0 Z M 10.695312 0 "/></g></g></g><g fill="#efefef" fill-opacity="1"><g transform="translate(159.332535, 216.87397)"><g><path d="M 6.488281 0 C 6.9375 0 7.167969 -0.230469 7.167969 -0.679688 L 7.167969 -8.292969 L 18.179688 -8.292969 L 18.179688 -0.679688 C 18.179688 -0.230469 18.410156 0 18.859375 0 L 22.152344 0 C 22.597656 0 22.832031 -0.230469 22.832031 -0.679688 L 22.832031 -24.75 C 22.832031 -25.199219 22.597656 -25.429688 22.152344 -25.429688 L 18.859375 -25.429688 C 18.410156 -25.429688 18.179688 -25.199219 18.179688 -24.75 L 18.179688 -12.417969 L 7.167969 -12.417969 L 7.167969 -24.75 C 7.167969 -25.199219 6.9375 -25.429688 6.488281 -25.429688 L 3.195312 -25.429688 C 2.75 -25.429688 2.515625 -25.199219 2.515625 -24.75 L 2.515625 -0.679688 C 2.515625 -0.230469 2.75 0 3.195312 0 Z M 6.488281 0 "/></g></g></g><g fill="#efefef" fill-opacity="1"><g transform="translate(186.524387, 216.87397)"><g><path d="M 16.902344 0 C 17.351562 0 17.582031 -0.230469 17.582031 -0.679688 L 17.582031 -3.445312 C 17.582031 -3.875 17.351562 -4.121094 16.902344 -4.121094 L 7.167969 -4.121094 L 7.167969 -8.378906 L 15.578125 -8.378906 C 16.027344 -8.378906 16.257812 -8.609375 16.257812 -9.054688 L 16.257812 -11.640625 C 16.257812 -12.085938 16.027344 -12.316406 15.578125 -12.316406 L 7.167969 -12.316406 L 7.167969 -21.308594 L 16.902344 -21.308594 C 17.351562 -21.308594 17.582031 -21.554688 17.582031 -21.988281 L 17.582031 -24.75 C 17.582031 -25.199219 17.351562 -25.429688 16.902344 -25.429688 L 3.195312 -25.429688 C 2.75 -25.429688 2.515625 -25.199219 2.515625 -24.75 L 2.515625 -0.679688 C 2.515625 -0.230469 2.75 0 3.195312 0 Z M 16.902344 0 "/></g></g></g><g fill="#efefef" fill-opacity="1"><g transform="translate(139.407828, 249.123968)"><g><path d="M 6.441406 0 C 6.886719 0 7.121094 -0.230469 7.121094 -0.679688 L 7.121094 -14.171875 L 14.335938 -4.785156 C 14.636719 -4.386719 15 -4.386719 15.296875 -4.785156 L 22.550781 -14.207031 L 22.550781 -0.679688 C 22.550781 -0.230469 22.78125 0 23.230469 0 L 26.441406 0 C 26.886719 0 27.121094 -0.230469 27.121094 -0.679688 L 27.121094 -24.882812 C 27.121094 -26.160156 26.226562 -26.441406 25.464844 -25.429688 L 14.816406 -11.359375 L 4.207031 -25.429688 C 3.425781 -26.457031 2.550781 -26.160156 2.550781 -24.882812 L 2.550781 -0.679688 C 2.550781 -0.230469 2.78125 0 3.226562 0 Z M 6.441406 0 "/></g></g></g><g fill="#efefef" fill-opacity="1"><g transform="translate(170.903689, 249.123968)"><g><path d="M 14.902344 0.597656 C 22.648438 0.597656 28.378906 -4.769531 28.378906 -12.714844 C 28.378906 -20.644531 22.648438 -26.027344 14.902344 -26.027344 C 7.167969 -26.027344 1.457031 -20.644531 1.457031 -12.714844 C 1.457031 -4.769531 7.167969 0.597656 14.902344 0.597656 Z M 14.902344 -3.726562 C 9.917969 -3.726562 6.125 -7.316406 6.125 -12.714844 C 6.125 -18.128906 9.902344 -21.707031 14.902344 -21.707031 C 19.902344 -21.707031 23.726562 -18.128906 23.726562 -12.714844 C 23.726562 -7.300781 19.902344 -3.726562 14.902344 -3.726562 Z M 14.902344 -3.726562 "/></g></g></g><g fill="#efefef" fill-opacity="1"><g transform="translate(202.598196, 249.123968)"><g><path d="M 19.835938 -25.429688 C 19.46875 -25.429688 19.1875 -25.265625 19.054688 -24.902344 L 12.285156 -8.097656 L 5.496094 -24.902344 C 5.363281 -25.265625 5.082031 -25.429688 4.71875 -25.429688 L 1.074219 -25.429688 C 0.5625 -25.429688 0.332031 -25.117188 0.5625 -24.636719 L 11.523438 0 C 11.921875 0.859375 12.632812 0.859375 13.011719 0 L 23.988281 -24.636719 C 24.207031 -25.117188 23.988281 -25.429688 23.476562 -25.429688 Z M 19.835938 -25.429688 "/></g></g></g><g fill="#efefef" fill-opacity="1"><g transform="translate(228.995463, 249.123968)"><g><path d="M 6.488281 0 C 6.9375 0 7.167969 -0.230469 7.167969 -0.679688 L 7.167969 -24.75 C 7.167969 -25.199219 6.9375 -25.429688 6.488281 -25.429688 L 3.195312 -25.429688 C 2.75 -25.429688 2.515625 -25.199219 2.515625 -24.75 L 2.515625 -0.679688 C 2.515625 -0.230469 2.75 0 3.195312 0 Z M 6.488281 0 "/></g></g></g><g fill="#efefef" fill-opacity="1"><g transform="translate(240.5108, 249.123968)"><g><path d="M 16.902344 0 C 17.351562 0 17.582031 -0.230469 17.582031 -0.679688 L 17.582031 -3.445312 C 17.582031 -3.875 17.351562 -4.121094 16.902344 -4.121094 L 7.167969 -4.121094 L 7.167969 -8.378906 L 15.578125 -8.378906 C 16.027344 -8.378906 16.257812 -8.609375 16.257812 -9.054688 L 16.257812 -11.640625 C 16.257812 -12.085938 16.027344 -12.316406 15.578125 -12.316406 L 7.167969 -12.316406 L 7.167969 -21.308594 L 16.902344 -21.308594 C 17.351562 -21.308594 17.582031 -21.554688 17.582031 -21.988281 L 17.582031 -24.75 C 17.582031 -25.199219 17.351562 -25.429688 16.902344 -25.429688 L 3.195312 -25.429688 C 2.75 -25.429688 2.515625 -25.199219 2.515625 -24.75 L 2.515625 -0.679688 C 2.515625 -0.230469 2.75 0 3.195312 0 Z M 16.902344 0 "/></g></g></g><g fill="#efefef" fill-opacity="1"><g transform="translate(261.494948, 249.123968)"><g><path d="M 9.933594 0.597656 C 14.386719 0.597656 18.578125 -1.488281 18.578125 -6.523438 C 18.578125 -10.992188 15.035156 -12.964844 11.835938 -14.636719 C 8.941406 -16.109375 6.488281 -17.234375 6.488281 -19.453125 C 6.488281 -21.257812 8.078125 -21.953125 10.050781 -21.953125 C 11.671875 -21.953125 13.578125 -21.507812 15.347656 -20.761719 C 15.746094 -20.597656 16.058594 -20.746094 16.226562 -21.140625 L 17.101562 -23.773438 C 17.269531 -24.171875 17.152344 -24.488281 16.738281 -24.652344 C 14.453125 -25.511719 11.96875 -26.027344 9.96875 -26.027344 C 5.695312 -26.027344 1.789062 -24.007812 1.789062 -19.121094 C 1.789062 -15.050781 4.703125 -13.113281 7.78125 -11.425781 C 10.910156 -9.734375 13.859375 -8.542969 13.859375 -6.292969 C 13.859375 -4.421875 12.25 -3.460938 9.816406 -3.460938 C 8.078125 -3.460938 5.894531 -3.875 3.445312 -5.015625 C 3.03125 -5.199219 2.714844 -5.097656 2.550781 -4.703125 L 1.523438 -1.953125 C 1.359375 -1.539062 1.472656 -1.242188 1.902344 -1.042969 C 5.03125 0.183594 7.5 0.597656 9.933594 0.597656 Z M 9.933594 0.597656 "/></g></g></g><g fill="#efefef" fill-opacity="1"><g transform="translate(283.240575, 249.123968)"><g><path d="M 5.859375 0.378906 C 7.449219 0.378906 8.773438 -0.878906 8.773438 -2.53125 C 8.773438 -4.121094 7.484375 -5.445312 5.859375 -5.445312 C 4.253906 -5.445312 2.964844 -4.105469 2.964844 -2.53125 C 2.964844 -0.910156 4.273438 0.378906 5.859375 0.378906 Z M 5.859375 0.378906 "/></g></g></g><g clip-path="url(#298870447d)"><path fill="#efefef" d="M 144.347656 102.242188 C 141.566406 102.242188 139.4375 104.519531 139.4375 107.132812 L 139.4375 172.347656 C 139.4375 174.960938 141.566406 177.242188 144.347656 177.242188 L 232.71875 177.242188 C 235.5 177.242188 237.628906 174.960938 237.628906 172.347656 L 237.628906 107.132812 C 237.628906 104.519531 235.5 102.242188 232.71875 102.242188 Z M 144.347656 105.5 L 232.71875 105.5 C 233.703125 105.5 234.355469 106.316406 234.355469 107.132812 L 234.355469 172.347656 C 234.355469 173.328125 233.703125 173.980469 232.71875 173.980469 L 144.347656 173.980469 C 143.363281 173.980469 142.710938 173.164062 142.710938 172.347656 L 142.710938 107.132812 C 142.710938 106.152344 143.363281 105.5 144.347656 105.5 Z M 147.617188 108.761719 C 146.632812 108.761719 145.980469 109.410156 145.980469 110.394531 L 145.980469 113.652344 C 145.980469 114.632812 146.632812 115.285156 147.617188 115.285156 C 148.601562 115.285156 149.253906 114.632812 149.253906 113.652344 L 149.253906 110.394531 C 149.253906 109.410156 148.601562 108.761719 147.617188 108.761719 Z M 155.800781 108.761719 C 154.816406 108.761719 154.164062 109.410156 154.164062 110.394531 L 154.164062 113.652344 C 154.164062 114.632812 154.816406 115.285156 155.800781 115.285156 C 156.785156 115.285156 157.4375 114.632812 157.4375 113.652344 L 157.4375 110.394531 C 157.4375 109.410156 156.785156 108.761719 155.800781 108.761719 Z M 163.984375 108.761719 C 163 108.761719 162.347656 109.410156 162.347656 110.394531 L 162.347656 113.652344 C 162.347656 114.632812 163 115.285156 163.984375 115.285156 C 164.96875 115.285156 165.621094 114.632812 165.621094 113.652344 L 165.621094 110.394531 C 165.621094 109.410156 164.96875 108.761719 163.984375 108.761719 Z M 172.167969 108.761719 C 171.183594 108.761719 170.53125 109.410156 170.53125 110.394531 L 170.53125 113.652344 C 170.53125 114.632812 171.183594 115.285156 172.167969 115.285156 C 173.152344 115.285156 173.804688 114.632812 173.804688 113.652344 L 173.804688 110.394531 C 173.804688 109.410156 173.152344 108.761719 172.167969 108.761719 Z M 180.351562 108.761719 C 179.367188 108.761719 178.714844 109.410156 178.714844 110.394531 L 178.714844 113.652344 C 178.714844 114.632812 179.367188 115.285156 180.351562 115.285156 C 181.335938 115.285156 181.988281 114.632812 181.988281 113.652344 L 181.988281 110.394531 C 181.988281 109.410156 181.335938 108.761719 180.351562 108.761719 Z M 188.53125 108.761719 C 187.546875 108.761719 186.894531 109.410156 186.894531 110.394531 L 186.894531 113.652344 C 186.894531 114.632812 187.546875 115.285156 188.53125 115.285156 C 189.515625 115.285156 190.167969 114.632812 190.167969 113.652344 L 190.167969 110.394531 C 190.167969 109.410156 189.515625 108.761719 188.53125 108.761719 Z M 196.714844 108.761719 C 195.730469 108.761719 195.078125 109.410156 195.078125 110.394531 L 195.078125 113.652344 C 195.078125 114.632812 195.730469 115.285156 196.714844 115.285156 C 197.699219 115.285156 198.351562 114.632812 198.351562 113.652344 L 198.351562 110.394531 C 198.351562 109.410156 197.699219 108.761719 196.714844 108.761719 Z M 204.898438 108.761719 C 203.914062 108.761719 203.261719 109.410156 203.261719 110.394531 L 203.261719 113.652344 C 203.261719 114.632812 203.914062 115.285156 204.898438 115.285156 C 205.882812 115.285156 206.535156 114.632812 206.535156 113.652344 L 206.535156 110.394531 C 206.535156 109.410156 205.882812 108.761719 204.898438 108.761719 Z M 213.082031 108.761719 C 212.097656 108.761719 211.445312 109.410156 211.445312 110.394531 L 211.445312 113.652344 C 211.445312 114.632812 212.097656 115.285156 213.082031 115.285156 C 214.066406 115.285156 214.71875 114.632812 214.71875 113.652344 L 214.71875 110.394531 C 214.71875 109.410156 214.066406 108.761719 213.082031 108.761719 Z M 221.265625 108.761719 C 220.28125 108.761719 219.628906 109.410156 219.628906 110.394531 L 219.628906 113.652344 C 219.628906 114.632812 220.28125 115.285156 221.265625 115.285156 C 222.25 115.285156 222.902344 114.632812 222.902344 113.652344 L 222.902344 110.394531 C 222.902344 109.410156 222.25 108.761719 221.265625 108.761719 Z M 229.445312 108.761719 C 228.460938 108.761719 227.808594 109.410156 227.808594 110.394531 L 227.808594 113.652344 C 227.808594 114.632812 228.460938 115.285156 229.445312 115.285156 C 230.429688 115.285156 231.082031 114.632812 231.082031 113.652344 L 231.082031 110.394531 C 231.082031 109.410156 230.429688 108.761719 229.445312 108.761719 Z M 147.617188 118.542969 C 146.632812 118.542969 145.980469 119.195312 145.980469 120.175781 C 145.980469 121.15625 146.632812 121.804688 147.617188 121.804688 L 162.347656 121.804688 L 162.347656 157.675781 L 147.617188 157.675781 C 146.632812 157.675781 145.980469 158.324219 145.980469 159.304688 C 145.980469 160.285156 146.632812 160.9375 147.617188 160.9375 L 229.445312 160.9375 C 230.429688 160.9375 231.082031 160.285156 231.082031 159.304688 C 231.082031 158.324219 230.429688 157.675781 229.445312 157.675781 L 214.71875 157.675781 L 214.71875 121.804688 L 229.445312 121.804688 C 230.429688 121.804688 231.082031 121.15625 231.082031 120.175781 C 231.082031 119.195312 230.429688 118.542969 229.445312 118.542969 Z M 165.621094 121.804688 L 211.445312 121.804688 L 211.445312 157.675781 L 165.621094 157.675781 Z M 147.617188 164.195312 C 146.632812 164.195312 145.980469 164.847656 145.980469 165.828125 L 145.980469 169.089844 C 145.980469 170.070312 146.632812 170.71875 147.617188 170.71875 C 148.601562 170.71875 149.253906 170.070312 149.253906 169.089844 L 149.253906 165.828125 C 149.253906 164.847656 148.601562 164.195312 147.617188 164.195312 Z M 155.800781 164.195312 C 154.816406 164.195312 154.164062 164.847656 154.164062 165.828125 L 154.164062 169.089844 C 154.164062 170.070312 154.816406 170.71875 155.800781 170.71875 C 156.785156 170.71875 157.4375 170.070312 157.4375 169.089844 L 157.4375 165.828125 C 157.4375 164.847656 156.785156 164.195312 155.800781 164.195312 Z M 163.984375 164.195312 C 163 164.195312 162.347656 164.847656 162.347656 165.828125 L 162.347656 169.089844 C 162.347656 170.070312 163 170.71875 163.984375 170.71875 C 164.96875 170.71875 165.621094 170.070312 165.621094 169.089844 L 165.621094 165.828125 C 165.621094 164.847656 164.96875 164.195312 163.984375 164.195312 Z M 172.167969 164.195312 C 171.183594 164.195312 170.53125 164.847656 170.53125 165.828125 L 170.53125 169.089844 C 170.53125 170.070312 171.183594 170.71875 172.167969 170.71875 C 173.152344 170.71875 173.804688 170.070312 173.804688 169.089844 L 173.804688 165.828125 C 173.804688 164.847656 173.152344 164.195312 172.167969 164.195312 Z M 180.351562 164.195312 C 179.367188 164.195312 178.714844 164.847656 178.714844 165.828125 L 178.714844 169.089844 C 178.714844 170.070312 179.367188 170.71875 180.351562 170.71875 C 181.335938 170.71875 181.988281 170.070312 181.988281 169.089844 L 181.988281 165.828125 C 181.988281 164.847656 181.335938 164.195312 180.351562 164.195312 Z M 188.53125 164.195312 C 187.546875 164.195312 186.894531 164.847656 186.894531 165.828125 L 186.894531 169.089844 C 186.894531 170.070312 187.546875 170.71875 188.53125 170.71875 C 189.515625 170.71875 190.167969 170.070312 190.167969 169.089844 L 190.167969 165.828125 C 190.167969 164.847656 189.515625 164.195312 188.53125 164.195312 Z M 196.714844 164.195312 C 195.730469 164.195312 195.078125 164.847656 195.078125 165.828125 L 195.078125 169.089844 C 195.078125 170.070312 195.730469 170.71875 196.714844 170.71875 C 197.699219 170.71875 198.351562 170.070312 198.351562 169.089844 L 198.351562 165.828125 C 198.351562 164.847656 197.699219 164.195312 196.714844 164.195312 Z M 204.898438 164.195312 C 203.914062 164.195312 203.261719 164.847656 203.261719 165.828125 L 203.261719 169.089844 C 203.261719 170.070312 203.914062 170.71875 204.898438 170.71875 C 205.882812 170.71875 206.535156 170.070312 206.535156 169.089844 L 206.535156 165.828125 C 206.535156 164.847656 205.882812 164.195312 204.898438 164.195312 Z M 213.082031 164.195312 C 212.097656 164.195312 211.445312 164.847656 211.445312 165.828125 L 211.445312 169.089844 C 211.445312 170.070312 212.097656 170.71875 213.082031 170.71875 C 214.066406 170.71875 214.71875 170.070312 214.71875 169.089844 L 214.71875 165.828125 C 214.71875 164.847656 214.066406 164.195312 213.082031 164.195312 Z M 221.265625 164.195312 C 220.28125 164.195312 219.628906 164.847656 219.628906 165.828125 L 219.628906 169.089844 C 219.628906 170.070312 220.28125 170.71875 221.265625 170.71875 C 222.25 170.71875 222.902344 170.070312 222.902344 169.089844 L 222.902344 165.828125 C 222.902344 164.847656 222.25 164.195312 221.265625 164.195312 Z M 229.445312 164.195312 C 228.460938 164.195312 227.808594 164.847656 227.808594 165.828125 L 227.808594 169.089844 C 227.808594 170.070312 228.460938 170.71875 229.445312 170.71875 C 230.429688 170.71875 231.082031 170.070312 231.082031 169.089844 L 231.082031 165.828125 C 231.082031 164.847656 230.429688 164.195312 229.445312 164.195312 Z M 229.445312 164.195312 " fill-opacity="1" fill-rule="nonzero"/></g><g clip-path="url(#53cef8aa74)"><g clip-path="url(#a3e386a211)"><path fill="#efefef" d="M 198.855469 126.53125 L 198.855469 152.78125 L 212.355469 152.78125 L 212.355469 126.53125 Z M 198.855469 126.53125 " fill-opacity="1" fill-rule="nonzero"/></g></g><g clip-path="url(#7550d8e3a3)"><g clip-path="url(#9583b9549f)"><path fill="#efefef" d="M 177.984375 126.53125 L 177.984375 152.78125 L 164.707031 152.78125 L 164.707031 126.53125 Z M 177.984375 126.53125 " fill-opacity="1" fill-rule="nonzero"/></g></g><path stroke-linecap="round" transform="matrix(0.000000000000000046, 0.745887, -0.75, 0.000000000000000046, 189.936731, 120.346398)" fill="none" stroke-linejoin="miter" d="M 2.002242 1.998975 L 49.282385 1.998975 " stroke="#efefef" stroke-width="4" stroke-opacity="1" stroke-miterlimit="4"/></svg>