<svg xmlns="http://www.w3.org/2000/svg" xmlns:xlink="http://www.w3.org/1999/xlink" width="500" zoomAndPan="magnify" viewBox="0 0 375 374.999991" height="500" preserveAspectRatio="xMidYMid meet" version="1.0"><defs><g/><clipPath id="4902ec909b"><path d="M 139.40625 102.101562 L 237.65625 102.101562 L 237.65625 177.101562 L 139.40625 177.101562 Z M 139.40625 102.101562 " clip-rule="nonzero"/></clipPath><clipPath id="c84183b77b"><path d="M 198.855469 126.390625 L 212.355469 126.390625 L 212.355469 152.640625 L 198.855469 152.640625 Z M 198.855469 126.390625 " clip-rule="nonzero"/></clipPath><clipPath id="fb4571dd85"><path d="M 212.359375 149.554688 L 212.359375 152.644531 C 204.902344 152.644531 198.855469 146.765625 198.855469 139.519531 C 198.855469 132.269531 204.902344 126.390625 212.359375 126.390625 L 212.359375 129.480469 C 206.65625 129.480469 202.03125 133.972656 202.03125 139.519531 C 202.03125 145.0625 206.65625 149.554688 212.359375 149.554688 Z M 212.359375 149.554688 " clip-rule="nonzero"/></clipPath><clipPath id="c88807f2fa"><path d="M 164.707031 126.390625 L 177.984375 126.390625 L 177.984375 152.640625 L 164.707031 152.640625 Z M 164.707031 126.390625 " clip-rule="nonzero"/></clipPath><clipPath id="185ddd6232"><path d="M 164.484375 149.554688 L 164.484375 152.644531 C 171.941406 152.644531 177.984375 146.765625 177.984375 139.519531 C 177.984375 132.269531 171.941406 126.390625 164.484375 126.390625 L 164.484375 129.480469 C 170.183594 129.480469 174.808594 133.972656 174.808594 139.519531 C 174.808594 145.0625 170.1875 149.554688 164.484375 149.554688 Z M 164.484375 149.554688 " clip-rule="nonzero"/></clipPath></defs><g fill="#2b2b2b" fill-opacity="1"><g transform="translate(139.407828, 216.735939)"><g><path d="M 10.695312 0 C 11.140625 0 11.375 -0.230469 11.375 -0.679688 L 11.375 -21.308594 L 16.886719 -21.308594 C 17.335938 -21.308594 17.566406 -21.554688 17.566406 -21.988281 L 17.566406 -24.75 C 17.566406 -25.199219 17.335938 -25.429688 16.886719 -25.429688 L 1.191406 -25.429688 C 0.746094 -25.429688 0.511719 -25.199219 0.511719 -24.75 L 0.511719 -21.988281 C 0.511719 -21.554688 0.746094 -21.308594 1.191406 -21.308594 L 6.6875 -21.308594 L 6.6875 -0.679688 C 6.6875 -0.230469 6.9375 0 7.367188 0 Z M 10.695312 0 "/></g></g></g><g fill="#2b2b2b" fill-opacity="1"><g transform="translate(159.332535, 216.735939)"><g><path d="M 6.488281 0 C 6.9375 0 7.167969 -0.230469 7.167969 -0.679688 L 7.167969 -8.292969 L 18.179688 -8.292969 L 18.179688 -0.679688 C 18.179688 -0.230469 18.410156 0 18.859375 0 L 22.152344 0 C 22.597656 0 22.832031 -0.230469 22.832031 -0.679688 L 22.832031 -24.75 C 22.832031 -25.199219 22.597656 -25.429688 22.152344 -25.429688 L 18.859375 -25.429688 C 18.410156 -25.429688 18.179688 -25.199219 18.179688 -24.75 L 18.179688 -12.417969 L 7.167969 -12.417969 L 7.167969 -24.75 C 7.167969 -25.199219 6.9375 -25.429688 6.488281 -25.429688 L 3.195312 -25.429688 C 2.75 -25.429688 2.515625 -25.199219 2.515625 -24.75 L 2.515625 -0.679688 C 2.515625 -0.230469 2.75 0 3.195312 0 Z M 6.488281 0 "/></g></g></g><g fill="#2b2b2b" fill-opacity="1"><g transform="translate(186.524387, 216.735939)"><g><path d="M 16.902344 0 C 17.351562 0 17.582031 -0.230469 17.582031 -0.679688 L 17.582031 -3.445312 C 17.582031 -3.875 17.351562 -4.121094 16.902344 -4.121094 L 7.167969 -4.121094 L 7.167969 -8.378906 L 15.578125 -8.378906 C 16.027344 -8.378906 16.257812 -8.609375 16.257812 -9.054688 L 16.257812 -11.640625 C 16.257812 -12.085938 16.027344 -12.316406 15.578125 -12.316406 L 7.167969 -12.316406 L 7.167969 -21.308594 L 16.902344 -21.308594 C 17.351562 -21.308594 17.582031 -21.554688 17.582031 -21.988281 L 17.582031 -24.75 C 17.582031 -25.199219 17.351562 -25.429688 16.902344 -25.429688 L 3.195312 -25.429688 C 2.75 -25.429688 2.515625 -25.199219 2.515625 -24.75 L 2.515625 -0.679688 C 2.515625 -0.230469 2.75 0 3.195312 0 Z M 16.902344 0 "/></g></g></g><g fill="#2b2b2b" fill-opacity="1"><g transform="translate(139.407828, 248.985936)"><g><path d="M 6.441406 0 C 6.886719 0 7.121094 -0.230469 7.121094 -0.679688 L 7.121094 -14.171875 L 14.335938 -4.785156 C 14.636719 -4.386719 15 -4.386719 15.296875 -4.785156 L 22.550781 -14.207031 L 22.550781 -0.679688 C 22.550781 -0.230469 22.78125 0 23.230469 0 L 26.441406 0 C 26.886719 0 27.121094 -0.230469 27.121094 -0.679688 L 27.121094 -24.882812 C 27.121094 -26.160156 26.226562 -26.441406 25.464844 -25.429688 L 14.816406 -11.359375 L 4.207031 -25.429688 C 3.425781 -26.457031 2.550781 -26.160156 2.550781 -24.882812 L 2.550781 -0.679688 C 2.550781 -0.230469 2.78125 0 3.226562 0 Z M 6.441406 0 "/></g></g></g><g fill="#2b2b2b" fill-opacity="1"><g transform="translate(170.903689, 248.985936)"><g><path d="M 14.902344 0.597656 C 22.648438 0.597656 28.378906 -4.769531 28.378906 -12.714844 C 28.378906 -20.644531 22.648438 -26.027344 14.902344 -26.027344 C 7.167969 -26.027344 1.457031 -20.644531 1.457031 -12.714844 C 1.457031 -4.769531 7.167969 0.597656 14.902344 0.597656 Z M 14.902344 -3.726562 C 9.917969 -3.726562 6.125 -7.316406 6.125 -12.714844 C 6.125 -18.128906 9.902344 -21.707031 14.902344 -21.707031 C 19.902344 -21.707031 23.726562 -18.128906 23.726562 -12.714844 C 23.726562 -7.300781 19.902344 -3.726562 14.902344 -3.726562 Z M 14.902344 -3.726562 "/></g></g></g><g fill="#2b2b2b" fill-opacity="1"><g transform="translate(202.598196, 248.985936)"><g><path d="M 19.835938 -25.429688 C 19.46875 -25.429688 19.1875 -25.265625 19.054688 -24.902344 L 12.285156 -8.097656 L 5.496094 -24.902344 C 5.363281 -25.265625 5.082031 -25.429688 4.71875 -25.429688 L 1.074219 -25.429688 C 0.5625 -25.429688 0.332031 -25.117188 0.5625 -24.636719 L 11.523438 0 C 11.921875 0.859375 12.632812 0.859375 13.011719 0 L 23.988281 -24.636719 C 24.207031 -25.117188 23.988281 -25.429688 23.476562 -25.429688 Z M 19.835938 -25.429688 "/></g></g></g><g fill="#2b2b2b" fill-opacity="1"><g transform="translate(228.995463, 248.985936)"><g><path d="M 6.488281 0 C 6.9375 0 7.167969 -0.230469 7.167969 -0.679688 L 7.167969 -24.75 C 7.167969 -25.199219 6.9375 -25.429688 6.488281 -25.429688 L 3.195312 -25.429688 C 2.75 -25.429688 2.515625 -25.199219 2.515625 -24.75 L 2.515625 -0.679688 C 2.515625 -0.230469 2.75 0 3.195312 0 Z M 6.488281 0 "/></g></g></g><g fill="#2b2b2b" fill-opacity="1"><g transform="translate(240.5108, 248.985936)"><g><path d="M 16.902344 0 C 17.351562 0 17.582031 -0.230469 17.582031 -0.679688 L 17.582031 -3.445312 C 17.582031 -3.875 17.351562 -4.121094 16.902344 -4.121094 L 7.167969 -4.121094 L 7.167969 -8.378906 L 15.578125 -8.378906 C 16.027344 -8.378906 16.257812 -8.609375 16.257812 -9.054688 L 16.257812 -11.640625 C 16.257812 -12.085938 16.027344 -12.316406 15.578125 -12.316406 L 7.167969 -12.316406 L 7.167969 -21.308594 L 16.902344 -21.308594 C 17.351562 -21.308594 17.582031 -21.554688 17.582031 -21.988281 L 17.582031 -24.75 C 17.582031 -25.199219 17.351562 -25.429688 16.902344 -25.429688 L 3.195312 -25.429688 C 2.75 -25.429688 2.515625 -25.199219 2.515625 -24.75 L 2.515625 -0.679688 C 2.515625 -0.230469 2.75 0 3.195312 0 Z M 16.902344 0 "/></g></g></g><g fill="#2b2b2b" fill-opacity="1"><g transform="translate(261.494948, 248.985936)"><g><path d="M 9.933594 0.597656 C 14.386719 0.597656 18.578125 -1.488281 18.578125 -6.523438 C 18.578125 -10.992188 15.035156 -12.964844 11.835938 -14.636719 C 8.941406 -16.109375 6.488281 -17.234375 6.488281 -19.453125 C 6.488281 -21.257812 8.078125 -21.953125 10.050781 -21.953125 C 11.671875 -21.953125 13.578125 -21.507812 15.347656 -20.761719 C 15.746094 -20.597656 16.058594 -20.746094 16.226562 -21.140625 L 17.101562 -23.773438 C 17.269531 -24.171875 17.152344 -24.488281 16.738281 -24.652344 C 14.453125 -25.511719 11.96875 -26.027344 9.96875 -26.027344 C 5.695312 -26.027344 1.789062 -24.007812 1.789062 -19.121094 C 1.789062 -15.050781 4.703125 -13.113281 7.78125 -11.425781 C 10.910156 -9.734375 13.859375 -8.542969 13.859375 -6.292969 C 13.859375 -4.421875 12.25 -3.460938 9.816406 -3.460938 C 8.078125 -3.460938 5.894531 -3.875 3.445312 -5.015625 C 3.03125 -5.199219 2.714844 -5.097656 2.550781 -4.703125 L 1.523438 -1.953125 C 1.359375 -1.539062 1.472656 -1.242188 1.902344 -1.042969 C 5.03125 0.183594 7.5 0.597656 9.933594 0.597656 Z M 9.933594 0.597656 "/></g></g></g><g fill="#2b2b2b" fill-opacity="1"><g transform="translate(283.240575, 248.985936)"><g><path d="M 5.859375 0.378906 C 7.449219 0.378906 8.773438 -0.878906 8.773438 -2.53125 C 8.773438 -4.121094 7.484375 -5.445312 5.859375 -5.445312 C 4.253906 -5.445312 2.964844 -4.105469 2.964844 -2.53125 C 2.964844 -0.910156 4.273438 0.378906 5.859375 0.378906 Z M 5.859375 0.378906 "/></g></g></g><g fill="#2b2b2b" fill-opacity="1"><g transform="translate(139.407828, 268.95171)"><g><path d="M 1.941406 0 C 2.113281 0 2.203125 -0.0898438 2.203125 -0.261719 L 2.203125 -3.054688 L 3.890625 -3.054688 C 6.398438 -3.054688 7.636719 -4.199219 7.636719 -6.429688 C 7.636719 -8.597656 6.453125 -9.777344 3.804688 -9.777344 L 1.226562 -9.777344 C 1.054688 -9.777344 0.96875 -9.6875 0.96875 -9.515625 L 0.96875 -0.261719 C 0.96875 -0.0898438 1.054688 0 1.226562 0 Z M 2.203125 -8.613281 L 3.730469 -8.613281 C 4.542969 -8.613281 6.421875 -8.59375 6.421875 -6.421875 C 6.421875 -4.238281 4.519531 -4.21875 3.730469 -4.21875 L 2.203125 -4.21875 Z M 2.203125 -8.613281 "/></g></g></g><g fill="#2b2b2b" fill-opacity="1"><g transform="translate(148.687851, 268.95171)"><g><path d="M 5.9375 -3.417969 C 7.070312 -3.914062 7.636719 -4.925781 7.636719 -6.429688 C 7.636719 -8.597656 6.453125 -9.777344 3.804688 -9.777344 L 1.226562 -9.777344 C 1.054688 -9.777344 0.96875 -9.6875 0.96875 -9.515625 L 0.96875 -0.261719 C 0.96875 -0.0898438 1.054688 0 1.226562 0 L 1.941406 0 C 2.113281 0 2.203125 -0.0898438 2.203125 -0.261719 L 2.203125 -3.054688 L 3.890625 -3.054688 C 4.179688 -3.054688 4.457031 -3.066406 4.714844 -3.101562 L 6.179688 -0.199219 C 6.242188 -0.0625 6.339844 0 6.480469 0 L 7.332031 0 C 7.53125 0 7.617188 -0.128906 7.523438 -0.3125 Z M 2.203125 -4.21875 L 2.203125 -8.613281 L 3.730469 -8.613281 C 4.542969 -8.613281 6.421875 -8.59375 6.421875 -6.421875 C 6.421875 -4.238281 4.519531 -4.21875 3.730469 -4.21875 Z M 2.203125 -4.21875 "/></g></g></g><g fill="#2b2b2b" fill-opacity="1"><g transform="translate(158.165124, 268.95171)"><g><path d="M 5.640625 0.203125 C 8.472656 0.203125 10.730469 -1.890625 10.730469 -4.886719 C 10.730469 -7.878906 8.472656 -9.980469 5.640625 -9.980469 C 2.808594 -9.980469 0.554688 -7.878906 0.554688 -4.886719 C 0.554688 -1.890625 2.808594 0.203125 5.640625 0.203125 Z M 5.640625 -1 C 3.519531 -1 1.800781 -2.589844 1.800781 -4.886719 C 1.800781 -7.199219 3.511719 -8.777344 5.640625 -8.777344 C 7.757812 -8.777344 9.476562 -7.199219 9.476562 -4.886719 C 9.476562 -2.578125 7.757812 -1 5.640625 -1 Z M 5.640625 -1 "/></g></g></g><g fill="#2b2b2b" fill-opacity="1"><g transform="translate(170.626605, 268.95171)"><g><path d="M 3.386719 0 C 6.515625 0 8.472656 -1.847656 8.472656 -4.90625 C 8.472656 -7.988281 6.511719 -9.777344 3.386719 -9.777344 L 1.226562 -9.777344 C 1.054688 -9.777344 0.96875 -9.6875 0.96875 -9.515625 L 0.96875 -0.261719 C 0.96875 -0.0898438 1.054688 0 1.226562 0 Z M 2.222656 -8.613281 L 3.367188 -8.613281 C 5.753906 -8.613281 7.222656 -7.3125 7.222656 -4.914062 C 7.222656 -2.515625 5.753906 -1.164062 3.367188 -1.164062 L 2.222656 -1.164062 Z M 2.222656 -8.613281 "/></g></g></g><g fill="#2b2b2b" fill-opacity="1"><g transform="translate(180.848338, 268.95171)"><g><path d="M 4.25 0.203125 C 6.105469 0.203125 7.613281 -0.769531 7.613281 -3.113281 L 7.613281 -9.515625 C 7.613281 -9.6875 7.523438 -9.777344 7.351562 -9.777344 L 6.613281 -9.777344 C 6.449219 -9.777344 6.351562 -9.6875 6.351562 -9.515625 L 6.351562 -3.226562 C 6.351562 -1.539062 5.539062 -0.980469 4.25 -0.980469 C 2.984375 -0.980469 2.15625 -1.539062 2.15625 -3.226562 L 2.15625 -9.515625 C 2.15625 -9.6875 2.0625 -9.777344 1.898438 -9.777344 L 1.160156 -9.777344 C 0.988281 -9.777344 0.898438 -9.6875 0.898438 -9.515625 L 0.898438 -3.113281 C 0.898438 -0.769531 2.425781 0.203125 4.25 0.203125 Z M 4.25 0.203125 "/></g></g></g><g fill="#2b2b2b" fill-opacity="1"><g transform="translate(190.529224, 268.95171)"><g><path d="M 5.625 0.203125 C 7.046875 0.203125 8.300781 -0.335938 9.203125 -1.214844 C 9.316406 -1.332031 9.300781 -1.457031 9.164062 -1.570312 L 8.597656 -2.011719 C 8.464844 -2.125 8.351562 -2.113281 8.234375 -2.003906 C 7.554688 -1.382812 6.636719 -1 5.640625 -1 C 3.519531 -1 1.800781 -2.589844 1.800781 -4.902344 C 1.800781 -7.199219 3.519531 -8.777344 5.613281 -8.777344 C 6.636719 -8.777344 7.542969 -8.394531 8.234375 -7.769531 C 8.351562 -7.664062 8.476562 -7.652344 8.597656 -7.765625 L 9.164062 -8.21875 C 9.285156 -8.332031 9.304688 -8.457031 9.179688 -8.578125 C 8.269531 -9.453125 7.03125 -9.980469 5.613281 -9.980469 C 2.839844 -9.980469 0.554688 -7.910156 0.554688 -4.886719 C 0.554688 -1.863281 2.824219 0.203125 5.625 0.203125 Z M 5.625 0.203125 "/></g></g></g><g fill="#2b2b2b" fill-opacity="1"><g transform="translate(201.374526, 268.95171)"><g><path d="M 3.621094 0 C 3.792969 0 3.882812 -0.0898438 3.882812 -0.261719 L 3.882812 -8.613281 L 6.097656 -8.613281 C 6.269531 -8.613281 6.359375 -8.707031 6.359375 -8.871094 L 6.359375 -9.515625 C 6.359375 -9.6875 6.269531 -9.777344 6.097656 -9.777344 L 0.414062 -9.777344 C 0.242188 -9.777344 0.152344 -9.6875 0.152344 -9.515625 L 0.152344 -8.871094 C 0.152344 -8.707031 0.242188 -8.613281 0.414062 -8.613281 L 2.628906 -8.613281 L 2.628906 -0.261719 C 2.628906 -0.0898438 2.722656 0 2.890625 0 Z M 3.621094 0 "/></g></g></g><g fill="#2b2b2b" fill-opacity="1"><g transform="translate(209.063822, 268.95171)"><g><path d="M 1.953125 0 C 2.121094 0 2.214844 -0.0898438 2.214844 -0.261719 L 2.214844 -9.515625 C 2.214844 -9.6875 2.121094 -9.777344 1.953125 -9.777344 L 1.226562 -9.777344 C 1.054688 -9.777344 0.96875 -9.6875 0.96875 -9.515625 L 0.96875 -0.261719 C 0.96875 -0.0898438 1.054688 0 1.226562 0 Z M 1.953125 0 "/></g></g></g><g fill="#2b2b2b" fill-opacity="1"><g transform="translate(213.412588, 268.95171)"><g><path d="M 5.640625 0.203125 C 8.472656 0.203125 10.730469 -1.890625 10.730469 -4.886719 C 10.730469 -7.878906 8.472656 -9.980469 5.640625 -9.980469 C 2.808594 -9.980469 0.554688 -7.878906 0.554688 -4.886719 C 0.554688 -1.890625 2.808594 0.203125 5.640625 0.203125 Z M 5.640625 -1 C 3.519531 -1 1.800781 -2.589844 1.800781 -4.886719 C 1.800781 -7.199219 3.511719 -8.777344 5.640625 -8.777344 C 7.757812 -8.777344 9.476562 -7.199219 9.476562 -4.886719 C 9.476562 -2.578125 7.757812 -1 5.640625 -1 Z M 5.640625 -1 "/></g></g></g><g fill="#2b2b2b" fill-opacity="1"><g transform="translate(225.87407, 268.95171)"><g><path d="M 1.953125 0 C 2.121094 0 2.207031 -0.0898438 2.207031 -0.261719 L 2.207031 -7.136719 L 7.847656 0 C 8.148438 0.371094 8.496094 0.253906 8.496094 -0.222656 L 8.496094 -9.515625 C 8.496094 -9.6875 8.40625 -9.777344 8.234375 -9.777344 L 7.523438 -9.777344 C 7.359375 -9.777344 7.261719 -9.6875 7.261719 -9.515625 L 7.261719 -2.691406 L 1.617188 -9.789062 C 1.316406 -10.15625 0.980469 -10.03125 0.980469 -9.554688 L 0.980469 -0.261719 C 0.980469 -0.0898438 1.070312 0 1.242188 0 Z M 1.953125 0 "/></g></g></g><g clip-path="url(#4902ec909b)"><path fill="#2b2b2b" d="M 144.347656 102.101562 C 141.566406 102.101562 139.4375 104.382812 139.4375 106.992188 L 139.4375 172.210938 C 139.4375 174.824219 141.566406 177.101562 144.347656 177.101562 L 232.71875 177.101562 C 235.5 177.101562 237.628906 174.824219 237.628906 172.210938 L 237.628906 106.992188 C 237.628906 104.382812 235.5 102.101562 232.71875 102.101562 Z M 144.347656 105.363281 L 232.71875 105.363281 C 233.703125 105.363281 234.355469 106.179688 234.355469 106.992188 L 234.355469 172.210938 C 234.355469 173.191406 233.703125 173.839844 232.71875 173.839844 L 144.347656 173.839844 C 143.363281 173.839844 142.710938 173.027344 142.710938 172.210938 L 142.710938 106.992188 C 142.710938 106.011719 143.363281 105.363281 144.347656 105.363281 Z M 147.617188 108.625 C 146.632812 108.625 145.980469 109.273438 145.980469 110.253906 L 145.980469 113.515625 C 145.980469 114.496094 146.632812 115.144531 147.617188 115.144531 C 148.601562 115.144531 149.253906 114.496094 149.253906 113.515625 L 149.253906 110.253906 C 149.253906 109.273438 148.601562 108.625 147.617188 108.625 Z M 155.800781 108.625 C 154.816406 108.625 154.164062 109.273438 154.164062 110.253906 L 154.164062 113.515625 C 154.164062 114.496094 154.816406 115.144531 155.800781 115.144531 C 156.785156 115.144531 157.4375 114.496094 157.4375 113.515625 L 157.4375 110.253906 C 157.4375 109.273438 156.785156 108.625 155.800781 108.625 Z M 163.984375 108.625 C 163 108.625 162.347656 109.273438 162.347656 110.253906 L 162.347656 113.515625 C 162.347656 114.496094 163 115.144531 163.984375 115.144531 C 164.96875 115.144531 165.621094 114.496094 165.621094 113.515625 L 165.621094 110.253906 C 165.621094 109.273438 164.96875 108.625 163.984375 108.625 Z M 172.167969 108.625 C 171.183594 108.625 170.53125 109.273438 170.53125 110.253906 L 170.53125 113.515625 C 170.53125 114.496094 171.183594 115.144531 172.167969 115.144531 C 173.152344 115.144531 173.804688 114.496094 173.804688 113.515625 L 173.804688 110.253906 C 173.804688 109.273438 173.152344 108.625 172.167969 108.625 Z M 180.351562 108.625 C 179.367188 108.625 178.714844 109.273438 178.714844 110.253906 L 178.714844 113.515625 C 178.714844 114.496094 179.367188 115.144531 180.351562 115.144531 C 181.335938 115.144531 181.988281 114.496094 181.988281 113.515625 L 181.988281 110.253906 C 181.988281 109.273438 181.335938 108.625 180.351562 108.625 Z M 188.53125 108.625 C 187.546875 108.625 186.894531 109.273438 186.894531 110.253906 L 186.894531 113.515625 C 186.894531 114.496094 187.546875 115.144531 188.53125 115.144531 C 189.515625 115.144531 190.167969 114.496094 190.167969 113.515625 L 190.167969 110.253906 C 190.167969 109.273438 189.515625 108.625 188.53125 108.625 Z M 196.714844 108.625 C 195.730469 108.625 195.078125 109.273438 195.078125 110.253906 L 195.078125 113.515625 C 195.078125 114.496094 195.730469 115.144531 196.714844 115.144531 C 197.699219 115.144531 198.351562 114.496094 198.351562 113.515625 L 198.351562 110.253906 C 198.351562 109.273438 197.699219 108.625 196.714844 108.625 Z M 204.898438 108.625 C 203.914062 108.625 203.261719 109.273438 203.261719 110.253906 L 203.261719 113.515625 C 203.261719 114.496094 203.914062 115.144531 204.898438 115.144531 C 205.882812 115.144531 206.535156 114.496094 206.535156 113.515625 L 206.535156 110.253906 C 206.535156 109.273438 205.882812 108.625 204.898438 108.625 Z M 213.082031 108.625 C 212.097656 108.625 211.445312 109.273438 211.445312 110.253906 L 211.445312 113.515625 C 211.445312 114.496094 212.097656 115.144531 213.082031 115.144531 C 214.066406 115.144531 214.71875 114.496094 214.71875 113.515625 L 214.71875 110.253906 C 214.71875 109.273438 214.066406 108.625 213.082031 108.625 Z M 221.265625 108.625 C 220.28125 108.625 219.628906 109.273438 219.628906 110.253906 L 219.628906 113.515625 C 219.628906 114.496094 220.28125 115.144531 221.265625 115.144531 C 222.25 115.144531 222.902344 114.496094 222.902344 113.515625 L 222.902344 110.253906 C 222.902344 109.273438 222.25 108.625 221.265625 108.625 Z M 229.445312 108.625 C 228.460938 108.625 227.808594 109.273438 227.808594 110.253906 L 227.808594 113.515625 C 227.808594 114.496094 228.460938 115.144531 229.445312 115.144531 C 230.429688 115.144531 231.082031 114.496094 231.082031 113.515625 L 231.082031 110.253906 C 231.082031 109.273438 230.429688 108.625 229.445312 108.625 Z M 147.617188 118.40625 C 146.632812 118.40625 145.980469 119.054688 145.980469 120.039062 C 145.980469 121.019531 146.632812 121.667969 147.617188 121.667969 L 162.347656 121.667969 L 162.347656 157.539062 L 147.617188 157.539062 C 146.632812 157.539062 145.980469 158.1875 145.980469 159.167969 C 145.980469 160.148438 146.632812 160.796875 147.617188 160.796875 L 229.445312 160.796875 C 230.429688 160.796875 231.082031 160.148438 231.082031 159.167969 C 231.082031 158.1875 230.429688 157.539062 229.445312 157.539062 L 214.71875 157.539062 L 214.71875 121.667969 L 229.445312 121.667969 C 230.429688 121.667969 231.082031 121.019531 231.082031 120.039062 C 231.082031 119.054688 230.429688 118.40625 229.445312 118.40625 Z M 165.621094 121.667969 L 211.445312 121.667969 L 211.445312 157.539062 L 165.621094 157.539062 Z M 147.617188 164.058594 C 146.632812 164.058594 145.980469 164.707031 145.980469 165.6875 L 145.980469 168.949219 C 145.980469 169.929688 146.632812 170.582031 147.617188 170.582031 C 148.601562 170.582031 149.253906 169.929688 149.253906 168.949219 L 149.253906 165.6875 C 149.253906 164.707031 148.601562 164.058594 147.617188 164.058594 Z M 155.800781 164.058594 C 154.816406 164.058594 154.164062 164.707031 154.164062 165.6875 L 154.164062 168.949219 C 154.164062 169.929688 154.816406 170.582031 155.800781 170.582031 C 156.785156 170.582031 157.4375 169.929688 157.4375 168.949219 L 157.4375 165.6875 C 157.4375 164.707031 156.785156 164.058594 155.800781 164.058594 Z M 163.984375 164.058594 C 163 164.058594 162.347656 164.707031 162.347656 165.6875 L 162.347656 168.949219 C 162.347656 169.929688 163 170.582031 163.984375 170.582031 C 164.96875 170.582031 165.621094 169.929688 165.621094 168.949219 L 165.621094 165.6875 C 165.621094 164.707031 164.96875 164.058594 163.984375 164.058594 Z M 172.167969 164.058594 C 171.183594 164.058594 170.53125 164.707031 170.53125 165.6875 L 170.53125 168.949219 C 170.53125 169.929688 171.183594 170.582031 172.167969 170.582031 C 173.152344 170.582031 173.804688 169.929688 173.804688 168.949219 L 173.804688 165.6875 C 173.804688 164.707031 173.152344 164.058594 172.167969 164.058594 Z M 180.351562 164.058594 C 179.367188 164.058594 178.714844 164.707031 178.714844 165.6875 L 178.714844 168.949219 C 178.714844 169.929688 179.367188 170.582031 180.351562 170.582031 C 181.335938 170.582031 181.988281 169.929688 181.988281 168.949219 L 181.988281 165.6875 C 181.988281 164.707031 181.335938 164.058594 180.351562 164.058594 Z M 188.53125 164.058594 C 187.546875 164.058594 186.894531 164.707031 186.894531 165.6875 L 186.894531 168.949219 C 186.894531 169.929688 187.546875 170.582031 188.53125 170.582031 C 189.515625 170.582031 190.167969 169.929688 190.167969 168.949219 L 190.167969 165.6875 C 190.167969 164.707031 189.515625 164.058594 188.53125 164.058594 Z M 196.714844 164.058594 C 195.730469 164.058594 195.078125 164.707031 195.078125 165.6875 L 195.078125 168.949219 C 195.078125 169.929688 195.730469 170.582031 196.714844 170.582031 C 197.699219 170.582031 198.351562 169.929688 198.351562 168.949219 L 198.351562 165.6875 C 198.351562 164.707031 197.699219 164.058594 196.714844 164.058594 Z M 204.898438 164.058594 C 203.914062 164.058594 203.261719 164.707031 203.261719 165.6875 L 203.261719 168.949219 C 203.261719 169.929688 203.914062 170.582031 204.898438 170.582031 C 205.882812 170.582031 206.535156 169.929688 206.535156 168.949219 L 206.535156 165.6875 C 206.535156 164.707031 205.882812 164.058594 204.898438 164.058594 Z M 213.082031 164.058594 C 212.097656 164.058594 211.445312 164.707031 211.445312 165.6875 L 211.445312 168.949219 C 211.445312 169.929688 212.097656 170.582031 213.082031 170.582031 C 214.066406 170.582031 214.71875 169.929688 214.71875 168.949219 L 214.71875 165.6875 C 214.71875 164.707031 214.066406 164.058594 213.082031 164.058594 Z M 221.265625 164.058594 C 220.28125 164.058594 219.628906 164.707031 219.628906 165.6875 L 219.628906 168.949219 C 219.628906 169.929688 220.28125 170.582031 221.265625 170.582031 C 222.25 170.582031 222.902344 169.929688 222.902344 168.949219 L 222.902344 165.6875 C 222.902344 164.707031 222.25 164.058594 221.265625 164.058594 Z M 229.445312 164.058594 C 228.460938 164.058594 227.808594 164.707031 227.808594 165.6875 L 227.808594 168.949219 C 227.808594 169.929688 228.460938 170.582031 229.445312 170.582031 C 230.429688 170.582031 231.082031 169.929688 231.082031 168.949219 L 231.082031 165.6875 C 231.082031 164.707031 230.429688 164.058594 229.445312 164.058594 Z M 229.445312 164.058594 " fill-opacity="1" fill-rule="nonzero"/></g><g clip-path="url(#c84183b77b)"><g clip-path="url(#fb4571dd85)"><path fill="#2b2b2b" d="M 198.855469 126.390625 L 198.855469 152.640625 L 212.355469 152.640625 L 212.355469 126.390625 Z M 198.855469 126.390625 " fill-opacity="1" fill-rule="nonzero"/></g></g><g clip-path="url(#c88807f2fa)"><g clip-path="url(#185ddd6232)"><path fill="#2b2b2b" d="M 177.984375 126.390625 L 177.984375 152.640625 L 164.707031 152.640625 L 164.707031 126.390625 Z M 177.984375 126.390625 " fill-opacity="1" fill-rule="nonzero"/></g></g><path stroke-linecap="round" transform="matrix(0.000000000000000046, 0.745887, -0.75, 0.000000000000000046, 189.936731, 120.208279)" fill="none" stroke-linejoin="miter" d="M 1.998883 1.998975 L 49.284264 1.998975 " stroke="#2b2b2b" stroke-width="4" stroke-opacity="1" stroke-miterlimit="4"/></svg>